<svg width="60" height="61" viewBox="0 0 60 61" version="1.1" xmlns="http://www.w3.org/2000/svg" xmlns:xlink="http://www.w3.org/1999/xlink">
<g id="Canvas" fill="none">
<g id="Logo">
<g id="Group 3">
<g id="Oval">
<path fill-rule="evenodd" clip-rule="evenodd" d="M 30 58.125C 45.533 58.125 58.125 45.533 58.125 30C 58.125 14.467 45.533 1.875 30 1.875C 14.467 1.875 1.875 14.467 1.875 30C 1.875 45.533 14.467 58.125 30 58.125Z" transform="translate(0 0.140869)" fill="#2196F3"/>
<path fill-rule="evenodd" clip-rule="evenodd" d="M 30 58.125C 45.533 58.125 58.125 45.533 58.125 30C 58.125 14.467 45.533 1.875 30 1.875C 14.467 1.875 1.875 14.467 1.875 30C 1.875 45.533 14.467 58.125 30 58.125Z" stroke-width="3.75" stroke-miterlimit="8" transform="translate(0 0.140869)" stroke="#42A5F5"/>
</g>
<mask id="mask0" mask-type="alpha" maskUnits="userSpaceOnUse" x="0" y="0" width="60" height="61">
<g id="Oval_2">
<path fill-rule="evenodd" clip-rule="evenodd" d="M 30 58.125C 45.533 58.125 58.125 45.533 58.125 30C 58.125 14.467 45.533 1.875 30 1.875C 14.467 1.875 1.875 14.467 1.875 30C 1.875 45.533 14.467 58.125 30 58.125Z" transform="translate(0 0.140869)" fill="white"/>
<path fill-rule="evenodd" clip-rule="evenodd" d="M 30 58.125C 45.533 58.125 58.125 45.533 58.125 30C 58.125 14.467 45.533 1.875 30 1.875C 14.467 1.875 1.875 14.467 1.875 30C 1.875 45.533 14.467 58.125 30 58.125Z" stroke-width="3.75" stroke-miterlimit="8" transform="translate(0 0.140869)" stroke="white"/>
</g>
</mask>
<g mask="url(#mask0)">
<g id="Group 2">
<g id="Line">
<path d="M 0.463983 1.875L 54.286 1.875" stroke-width="3.75" stroke-linecap="square" transform="translate(2.25 21.1409)" stroke="#42A5F5"/>
</g>
<g id="Line_2">
<path d="M 0.463983 1.875L 54.286 1.875" stroke-width="3.75" stroke-linecap="square" transform="translate(2.25 36.8909)" stroke="#42A5F5"/>
</g>
<g id="Path 2">
<path d="M 9.75 0C 9.75 0 -0.212242 11.5775 0.00345267 26.25C 0.219148 40.9225 9.75 51 9.75 51" stroke-width="3.75" stroke-linecap="round" stroke-linejoin="round" transform="translate(19.5 4.64087)" stroke="#42A5F5"/>
</g>
<g id="Path 2_2">
<path d="M 9.75 0C 9.75 0 -0.212242 11.5775 0.00345267 26.25C 0.219148 40.9225 9.75 51 9.75 51" stroke-width="3.75" stroke-linecap="round" stroke-linejoin="round" transform="translate(39.75 4.64087) scale(-1 1)" stroke="#42A5F5"/>
</g>
</g>
</g>
</g>
<g id="Group 7">
<g id="Plane Icon">
<g id="Combined Shape">
<path fill-rule="evenodd" clip-rule="evenodd" d="M 0.017696 19.5636C 0.0215793 19.324 0.157125 19.1058 0.370526 18.9964L 15.5068 11.2259L 15.5068 4.16151C 15.5068 3.9305 15.5549 3.70369 15.6576 3.49689C 16.1103 2.58449 17.5055 -7.54899e-05 18.7789 -9.8491e-05C 20.0525 5.78228e-07 21.4465 2.58497 21.899 3.49711C 22.0015 3.70387 22.0494 3.93042 22.0495 4.16122L 22.0494 11.1769L 37.2809 18.9964C 37.494 19.1058 37.6297 19.3239 37.6336 19.5637L 37.6568 21.0196C 37.66 21.2115 37.578 21.3949 37.433 21.5205L 36.6765 22.1771C 36.5498 22.2871 36.3855 22.3437 36.2179 22.3352L 22.0494 21.6121L 22.0493 28.9662L 25.7518 31.8971C 26.008 32.0998 26.0734 32.4615 25.9048 32.7415L 25.6476 33.168C 25.5176 33.3837 25.2744 33.5048 25.0239 33.4786L 20.6508 33.0204C 20.0698 34.1054 19.3876 35.0451 18.768 35.0451C 18.1489 35.0451 17.4711 34.1073 16.8946 33.0238L 12.5551 33.4785C 12.3046 33.5047 12.0615 33.3838 11.9313 33.168L 11.6743 32.7415C 11.5055 32.4616 11.5711 32.0999 11.8272 31.897L 15.5067 28.9843L 15.5068 21.617L 1.4334 22.3351C 1.26581 22.3437 1.10148 22.287 0.974697 22.177L 0.218141 21.5206C 0.0731653 21.3948 -0.00853805 21.2116 -0.0055038 21.0198L 0.017696 19.5636Z" transform="matrix(0.5 0.866025 -0.866025 0.5 36.0452 3.65845)" fill="white"/>
</g>
<mask id="mask1" mask-type="alpha" maskUnits="userSpaceOnUse" x="13" y="13" width="33" height="34">
<g id="Combined Shape_2">
<path fill-rule="evenodd" clip-rule="evenodd" d="M 0.017696 19.5636C 0.0215793 19.324 0.157125 19.1058 0.370526 18.9964L 15.5068 11.2259L 15.5068 4.16151C 15.5068 3.9305 15.5549 3.70369 15.6576 3.49689C 16.1103 2.58449 17.5055 -7.54899e-05 18.7789 -9.8491e-05C 20.0525 5.78228e-07 21.4465 2.58497 21.899 3.49711C 22.0015 3.70387 22.0494 3.93042 22.0495 4.16122L 22.0494 11.1769L 37.2809 18.9964C 37.494 19.1058 37.6297 19.3239 37.6336 19.5637L 37.6568 21.0196C 37.66 21.2115 37.578 21.3949 37.433 21.5205L 36.6765 22.1771C 36.5498 22.2871 36.3855 22.3437 36.2179 22.3352L 22.0494 21.6121L 22.0493 28.9662L 25.7518 31.8971C 26.008 32.0998 26.0734 32.4615 25.9048 32.7415L 25.6476 33.168C 25.5176 33.3837 25.2744 33.5048 25.0239 33.4786L 20.6508 33.0204C 20.0698 34.1054 19.3876 35.0451 18.768 35.0451C 18.1489 35.0451 17.4711 34.1073 16.8946 33.0238L 12.5551 33.4785C 12.3046 33.5047 12.0615 33.3838 11.9313 33.168L 11.6743 32.7415C 11.5055 32.4616 11.5711 32.0999 11.8272 31.897L 15.5067 28.9843L 15.5068 21.617L 1.4334 22.3351C 1.26581 22.3437 1.10148 22.287 0.974697 22.177L 0.218141 21.5206C 0.0731653 21.3948 -0.00853805 21.2116 -0.0055038 21.0198L 0.017696 19.5636Z" transform="matrix(0.5 0.866025 -0.866025 0.5 36.0452 3.65845)" fill="white"/>
</g>
</mask>
<g mask="url(#mask1)">
<g id="Rectangle 7">
<path fill-rule="evenodd" clip-rule="evenodd" d="M 0 0L 1.30853 0L 1.30853 12.4084L 0 12.4084L 0 0Z" transform="matrix(0.5 0.866025 -0.866025 0.5 34.536 20.9246)" fill="#EBECF2"/>
</g>
<g id="Rectangle 5">
<path fill-rule="evenodd" clip-rule="evenodd" d="M 0.0281649 8.64231C 0.0320039 8.40261 0.167603 8.18451 0.380878 8.07502L 16.1101 0L 16.1101 10.6653L 1.44383 11.4138C 1.27626 11.4223 1.11189 11.3657 0.985155 11.2557L 0.228552 10.5992C 0.0836631 10.4735 0.00177379 10.2901 0.00484564 10.0983L 0.0281649 8.64231Z" transform="matrix(-0.5 -0.866025 -0.866025 0.5 45.4178 41.7351)" fill="#DEE1E3"/>
</g>
<g id="Combined Shape_3" opacity="0.4">
<path fill-rule="evenodd" clip-rule="evenodd" d="M -0.0455235 4.15063L -0.0454954 4.25312L 4.39229 4.71801C 4.64273 4.7442 4.88598 4.62317 5.01591 4.4074L 5.27312 3.98094C 5.4418 3.70099 5.37634 3.33928 5.12014 3.13654L 1.20947 0.0408762L 1.20954 0.575418C 1.20956 0.740911 1.18603 0.905208 1.13651 1.06324C 0.967776 1.60111 0.521622 2.9559 -0.0455235 4.15063Z" transform="matrix(0.5 0.866025 -0.866025 0.5 21.4535 35.9062)" fill="#DEE1E3"/>
</g>
<g id="Combined Shape_4">
<path fill-rule="evenodd" clip-rule="evenodd" d="M 0.000119173 10.5418L 0 0L 1.7914 0.919668L 3.74681 10.733L 0.000119173 10.5418Z" transform="matrix(0.5 0.866025 -0.866025 0.5 37.3776 28.0833)" fill="#C5C6CC"/>
</g>
<g id="Combined Shape_5">
<path fill-rule="evenodd" clip-rule="evenodd" d="M 3.33437 0.655679L 3.33437 35.0553C 3.33437 35.0553 1.519 35.0222 0.0529702 35.0222C 0.0352222 35.0222 0.0175653 35.0217 0 35.0207C 0.760402 33.8992 2.02584 31.4875 2.02584 28.44L 2.02584 4.62487C 2.02584 1.97874 0.822703 0.635989 0.339415 0C 1.69161 0.228134 3.33437 0.655679 3.33437 0.655679Z" transform="matrix(0.5 0.866025 -0.866025 0.5 45.3828 19.8777)" fill="#DEE1E3"/>
</g>
</g>
</g>
</g>
</g>
</g>
</svg>

